PathFileType	4	(X/Y/Z)	/Users/niels/Desktop/University/Third Semester/Perception and Action/Exam/Gymnastics Motion Tracking/Code for Gym Tracking/Analyzed Data/Webcam_Backflip/id3_2_baseline_Sports2D/id3_2_baseline_Sports2D_px_person00.trc
DataRate	CameraRate	NumFrames	NumMarkers	Units	OrigDataRate	OrigDataStartFrame	OrigNumFrames
29.8125	29.8125	7	22	m	29.8125	60	160
Frame#	Time	Hip			RHip			RKnee			RAnkle			RBigToe			RSmallToe			RHeel			LHip			LKnee			LAnkle			LBigToe			LSmallToe			LHeel			Neck			Head			Nose			RShoulder			RElbow			RWrist			LShoulder			LElbow			LWrist		
		X1	Y1	Z1	X2	Y2	Z2	X3	Y3	Z3	X4	Y4	Z4	X5	Y5	Z5	X6	Y6	Z6	X7	Y7	Z7	X8	Y8	Z8	X9	Y9	Z9	X10	Y10	Z10	X11	Y11	Z11	X12	Y12	Z12	X13	Y13	Z13	X14	Y14	Z14	X15	Y15	Z15	X16	Y16	Z16	X17	Y17	Z17	X18	Y18	Z18	X19	Y19	Z19	X20	Y20	Z20	X21	Y21	Z21	X22	Y22	Z22
60	2.012578616352201	1.202068692057614	-0.3284838755621311	0.0	1.2082104482267717	-0.32859310895399335	0.0	1.1831690742982455	-0.23012349396776063	0.0	1.25884247791015	-0.24355261422437616	0.0	1.2803313144770712	-0.2088538280239774	0.0	1.2877970613396326	-0.21904558541723976	0.0	1.2683423583251825	-0.2529132289257767	0.0	1.2021305925238686	-0.3251232809152776	0.0	1.179436849097164	-0.23657945669004726	0.0	1.2641696226116295	-0.24369726984367387	0.0	1.2757801734729937	-0.21511139168429977	0.0	1.274614216405941	-0.21676656868461697	0.0	1.2754029839620666	-0.25168462278574644	0.0	1.075388560198831	-0.325173917735474	0.0	1.0114681896046467	-0.3435533215906772	0.0	1.038985833318404	-0.31749907706127656	0.0	1.0896402471184827	-0.31229633484013175	0.0	1.1656586427585323	-0.27017178587681395	0.0	1.1706789410065301	-0.22015795595803728	0.0	1.086340466607882	-0.31848707303218265	0.0	1.1527609928963845	-0.279109706980847	0.0	1.1605903478692545	-0.2329746474190584	0.0
61	2.0461215932914043	1.220550948200696	-0.311674695387006	0.0	1.2244404460042524	-0.3120271655717398	0.0	1.1697446609054851	-0.2314534342581458	0.0	1.2415200757930822	-0.21172673062206435	0.0	1.2486201371159082	-0.17899999238982195	0.0	1.2566638695177164	-0.18638894497917136	0.0	1.252955376727693	-0.21517942389165287	0.0	1.222448304407232	-0.30770666045429396	0.0	1.1692363144696991	-0.23596180591878452	0.0	1.251659428509688	-0.21501397307262565	0.0	1.2451987910326574	-0.1900944555336065	0.0	1.2446268791390962	-0.18994138209045225	0.0	1.265207074019518	-0.2152809389160503	0.0	1.1031739900633495	-0.34481454540733225	0.0	1.0487375631106814	-0.3778632003547658	0.0	1.0694862321482823	-0.35393600907867373	0.0	1.1138573311576048	-0.3289234810917327	0.0	1.1775047781943664	-0.27625969302197223	0.0	1.1744228518412654	-0.23325035963119775	0.0	1.1155888905031925	-0.33411508281983965	0.0	1.1700837555292822	-0.2829120388993662	0.0	1.1641031408221232	-0.23911749292881884	0.0
62	2.079664570230608	1.2346351352458729	-0.2949575231934061	0.0	1.235785790714856	-0.2957981514953022	0.0	1.1611145157790153	-0.24562218836415656	0.0	1.217402781824479	-0.19587597252242459	0.0	1.209070243510411	-0.17153788398926464	0.0	1.216197608454329	-0.17503326008721978	0.0	1.2279224176262031	-0.19298213728859656	0.0	1.2383478099352587	-0.29122285202156717	0.0	1.1635634559161823	-0.24695001770430133	0.0	1.2308095843878335	-0.2019847360633701	0.0	1.2055518845048425	-0.1864669262893954	0.0	1.2061249651955048	-0.18492399241073118	0.0	1.243857168775586	-0.19417666983090365	0.0	1.13778963358442	-0.3636393825135467	0.0	1.0960672404707772	-0.41121596179940245	0.0	1.1075509589564787	-0.39007947291867684	0.0	1.143493226604927	-0.34530601497886204	0.0	1.1877526971181638	-0.2831300916634372	0.0	1.1803797725773628	-0.24949124042800555	0.0	1.1523233207174377	-0.3502822194474118	0.0	1.1889447965003213	-0.288868911737881	0.0	1.1708193927155617	-0.25084891468575365	0.0
63	2.113207547169811	1.2434081430415957	-0.2802868291444362	0.0	1.2420494963464848	-0.28187715613945463	0.0	1.1573815936268024	-0.2700613801703476	0.0	1.1905655970008704	-0.19727886796533983	0.0	1.1679679927898245	-0.1859293924054101	0.0	1.1730542461462363	-0.18520843394411496	0.0	1.1977875903844155	-0.18830238090402862	0.0	1.2485828926907157	-0.27772272144720683	0.0	1.1622969359355746	-0.26703008102574166	0.0	1.204406449169525	-0.2049132594042188	0.0	1.1635924837815645	-0.20201693408715493	0.0	1.1657908670344743	-0.19970218228076517	0.0	1.2148439365239265	-0.18980122151076495	0.0	1.178414127597874	-0.3792470780490461	0.0	1.1528866880001076	-0.43895122199890113	0.0	1.152831615670788	-0.42008982389731964	0.0	1.1785233746846349	-0.3592964219531574	0.0	1.1977493548497873	-0.29162483364998637	0.0	1.1898734040461942	-0.26968220132408366	0.0	1.1948086429583833	-0.3650168812139764	0.0	1.208533740751906	-0.2977037987928027	0.0	1.1826374072419374	-0.2691672431999143	0.0
64	2.1467505241090143	1.24751637780124	-0.2698431960649395	0.0	1.2443317753769212	-0.2724032730322247	0.0	1.1588109111919134	-0.30138002374344103	0.0	1.1645665374641974	-0.21593821240110975	0.0	1.1316536661653218	-0.22011726930548053	0.0	1.1340461442031606	-0.21557178157976814	0.0	1.1668694870244938	-0.20176641955284638	0.0	1.253414207857329	-0.2690429664406124	0.0	1.1652455504489008	-0.29344665498289113	0.0	1.1760816988124674	-0.22319335297710954	0.0	1.1264763445241557	-0.23430442862097398	0.0	1.130350953573751	-0.23160470159198618	0.0	1.1823525670202857	-0.20255516800045306	0.0	1.2229239880960125	-0.3904782624917968	0.0	1.2165279518028909	-0.45812824622525866	0.0	1.203832827417999	-0.44081171701340893	0.0	1.2176534017302123	-0.3702350255161873	0.0	1.2089914116701719	-0.3030319352537526	0.0	1.201535215480303	-0.2941145402149758	0.0	1.239472013151308	-0.3766958871750726	0.0	1.2281050863465093	-0.30972984417897237	0.0	1.199019744778533	-0.2938563234890413	0.0
65	2.180293501048218	1.2483833039934245	-0.26597177057251353	0.0	1.2441448929826382	-0.2695554219465553	0.0	1.166113354370144	-0.3360315133630693	0.0	1.142707953284372	-0.2513540728577859	0.0	1.1063500120264813	-0.27161790110452166	0.0	1.1056844064653244	-0.2641932239843706	0.0	1.1393003550548164	-0.2336980387250447	0.0	1.2540345988644874	-0.26688424444768194	0.0	1.1726347334081635	-0.3238444120069944	0.0	1.1505455847875856	-0.2564668398383336	0.0	1.101107666029822	-0.28185230187976446	0.0	1.106206403651944	-0.2787388575287682	0.0	1.1514083209011825	-0.23307688178654398	0.0	1.268256132186046	-0.3972733371746074	0.0	1.282627930610279	-0.4674843444329759	0.0	1.2579434339692193	-0.45213422911207035	0.0	1.2583954530304664	-0.378616739636192	0.0	1.222564819738177	-0.3187098892708146	0.0	1.2132642145433825	-0.3231543119309567	0.0	1.2821214435491044	-0.3843040034561359	0.0	1.2471621548744496	-0.32479372820901137	0.0	1.2177559815536376	-0.3240219232472142	0.0
66	2.213836477987421	1.2475450999247975	-0.27077449399073744	0.0	1.242939846646495	-0.275094295556237	0.0	1.1794003684228362	-0.3712558155435389	0.0	1.1286269902321884	-0.3024822171281679	0.0	1.0972901282296867	-0.3373640431261812	0.0	1.093380912453609	-0.3284809180420393	0.0	1.119465111644277	-0.28400236413121543	0.0	1.252123695665208	-0.2727477568653059	0.0	1.1843767349535692	-0.35677096763502764	0.0	1.1329367359245959	-0.30459860841765757	0.0	1.0928607891874522	-0.34322104730708847	0.0	1.0984249238974864	-0.33932675105165166	0.0	1.1275718661561878	-0.2818626304212602	0.0	1.310983844698667	-0.4002494072196215	0.0	1.3459406505435976	-0.46712258172475757	0.0	1.3114847354114627	-0.45551984550938324	0.0	1.2976588190612306	-0.38503125095203794	0.0	1.2389228018437084	-0.33937352967237744	0.0	1.2249722774539487	-0.357746572133561	0.0	1.319481804706649	-0.3877156583902922	0.0	1.2654020782637663	-0.34266705755847765	0.0	1.2365238015502638	-0.35873224072372945	0.0
